<svg xmlns="http://www.w3.org/2000/svg" viewBox="0 0 500 500"><g id="freepik--Device--inject-31"><g id="freepik--Mobile--inject-31"><path d="M242.56,356.9v-294c0-7.56-3.76-9.65-7.09-11.58s-8.83-3.09-13.58-.35L100.48,121c-4.74,2.73-8.59,9.39-8.59,14.87v294c0,5.47,3.44,8.7,6.77,10.63s9.16,4,13.9,1.3L234,371.77A16.16,16.16,0,0,0,242.56,356.9Z" style="fill:#37474f"></path><path d="M234.84,359.68,110,431.76l0-295.29-15.62-9a17.47,17.47,0,0,0-2.52,8.46v294c0,5.47,3.44,8.7,6.77,10.63s9.16,4,13.9,1.3L234,371.77a16.38,16.38,0,0,0,7.43-8.29l-.48-.28Z" style="fill:#263238"></path><path d="M233.75,60.33,112,130.63a13.37,13.37,0,0,0-6,10.43V432.7c0,5.88,4.17,8.29,9.27,5.34l118.52-68.42a15.14,15.14,0,0,0,6.83-11.83V64.27C240.58,59.93,237.51,58.16,233.75,60.33Z" style="fill:#455a64"></path><path d="M234.64,78.21V350.83a14.37,14.37,0,0,1-6.49,11.24L118.38,425.45c-3.58,2.08-6.48.41-6.48-3.74V147.09a14.47,14.47,0,0,1,4.55-9.77l.61-.56a11.87,11.87,0,0,1,1.32-.9L149.26,118l2-1.16c1.11-.64,2-.13,2,1.16s1,1.78,2.16,1.08l36-20.77a4.61,4.61,0,0,0,2.15-3.56,4.55,4.55,0,0,1,1.8-3.37l.21-.13,30.2-17.43.65-.38C231,70.87,234.64,73,234.64,78.21Z"></path><path d="M218.73,354.79a14.37,14.37,0,0,0,6.49-11.24V74.18l-29.64,17.1-.21.13a4.55,4.55,0,0,0-1.8,3.37,4.61,4.61,0,0,1-2.15,3.56l-36,20.77c-1.19.7-2.16.2-2.16-1.08s-.9-1.8-2-1.16l-2,1.16-30.88,17.83a11.87,11.87,0,0,0-1.32.9l-.61.56a14.47,14.47,0,0,0-4.55,9.77V416.47Z" style="fill:#263238"></path><path d="M160.9,108.14l16.49-9.52c1-.57,1.79-.17,1.79.9a3.83,3.83,0,0,1-1.79,3L160.9,112c-1,.57-1.78.16-1.78-.9A3.83,3.83,0,0,1,160.9,108.14Z" style="fill:#263238"></path><path d="M185.86,93c1.11-.64,2-.12,2,1.16a4.41,4.41,0,0,1-2,3.47c-1.11.64-2,.12-2-1.16A4.42,4.42,0,0,1,185.86,93Z" style="fill:#263238"></path><path d="M103.16,171.18a7.29,7.29,0,0,0-3.18-5.74,2.11,2.11,0,0,0-2.17-.17c-.4.24-2,1.11-2.38,1.36a2.46,2.46,0,0,0-1,2.25v24a7.25,7.25,0,0,0,3.17,5.74,2.18,2.18,0,0,0,2.1.22c.44-.23,2-1.16,2.45-1.4a2.48,2.48,0,0,0,1-2.26Z" style="fill:#455a64"></path><path d="M100.79,172.55V196.5c0,2.16-1.42,3.09-3.17,2.08a7.25,7.25,0,0,1-3.17-5.74v-24c0-2.16,1.42-3.09,3.17-2.07A7.25,7.25,0,0,1,100.79,172.55Z" style="fill:#37474f"></path><path d="M103.16,213.11a7.26,7.26,0,0,0-3.18-5.73,2.09,2.09,0,0,0-2.17-.18c-.4.24-2,1.11-2.38,1.36a2.46,2.46,0,0,0-1,2.25v24a7.25,7.25,0,0,0,3.17,5.74,2.15,2.15,0,0,0,2.1.22c.44-.23,2-1.15,2.45-1.4a2.48,2.48,0,0,0,1-2.26Z" style="fill:#455a64"></path><path d="M100.79,214.48v24c0,2.16-1.42,3.09-3.17,2.08a7.25,7.25,0,0,1-3.17-5.74v-24c0-2.16,1.42-3.08,3.17-2.07A7.25,7.25,0,0,1,100.79,214.48Z" style="fill:#37474f"></path></g><g id="freepik--window--inject-31"><path d="M244.57,80.63c-1.51-.86-3.58-.74-5.87.58l-.65.38L207.39,99.28l-.21.13a4.65,4.65,0,0,0-1.84,3.43,4.7,4.7,0,0,1-2.18,3.61l-36.53,21.09-.08,0a1.42,1.42,0,0,0-.59-1.24l-2.11-1.22a1.43,1.43,0,0,0-1.44.15c-1.13.64-2,1.18-2,1.18L129,144.54a11.31,11.31,0,0,0-1.34.91l-.62.56a14.73,14.73,0,0,0-4.62,9.93V434.71c0,2.1.73,3.57,1.92,4.26l2.12,1.22c1.19.69,2.84.59,4.65-.47l111.43-64.33A14.58,14.58,0,0,0,249.14,364V87.23c0-2.64-.93-4.5-2.43-5.37Z" style="fill:#00DB03"></path><path d="M131.75,438.82v.54l-.62.36c-1.81,1.06-3.46,1.16-4.65.47L124.36,439c-1.19-.7-1.92-2.16-1.92-4.26V155.94a13.71,13.71,0,0,1,2.27-7l2.51,1.44a13.44,13.44,0,0,0-2.2,6.81V435.93a5.06,5.06,0,0,0,.9,3.17,2.78,2.78,0,0,0,2.26,1.07,5.66,5.66,0,0,0,2.72-.85Z" style="opacity:0.30000000000000004"></path><path d="M208.69,101.92a3.89,3.89,0,0,0-.77,2.13,4.67,4.67,0,0,1-.81,2.45L204.58,105a4.19,4.19,0,0,0,.77-2.21,4.43,4.43,0,0,1,.82-2.37Z" style="opacity:0.30000000000000004"></path><path d="M128.18,440.16a2.78,2.78,0,0,1-2.26-1.05,5.11,5.11,0,0,1-.9-3.18V157.16a14.31,14.31,0,0,1,4.47-9.59l.2-.18.41-.37a10.83,10.83,0,0,1,1.26-.86l31.35-18.1,2-1.18a1.45,1.45,0,0,1,.68-.22c.6,0,.66.7.66,1a1.68,1.68,0,0,0,1.63,1.89,2.57,2.57,0,0,0,1.26-.38l36.52-21.09a5.12,5.12,0,0,0,2.42-4,4.15,4.15,0,0,1,1.64-3l.17-.1,30.66-17.7.66-.38a7.12,7.12,0,0,1,3.47-1.07c2.56,0,4.16,2.1,4.16,5.47V364a14,14,0,0,1-6.35,11L130.9,439.32A5.61,5.61,0,0,1,128.18,440.16Z" style="fill:#fafafa"></path><path d="M125,402.62v33.31a5.11,5.11,0,0,0,.9,3.18,2.78,2.78,0,0,0,2.26,1.05,5.61,5.61,0,0,0,2.72-.84L242.33,375a14,14,0,0,0,6.35-11V331.22Z" style="fill:#00DB03"></path><g style="opacity:0.5"><path d="M125,402.62v33.31a5.11,5.11,0,0,0,.9,3.18,2.78,2.78,0,0,0,2.26,1.05,5.61,5.61,0,0,0,2.72-.84L242.33,375a14,14,0,0,0,6.35-11V331.22Z" style="fill:#fff"></path></g><path d="M191.88,383.22c0,3.72-2.26,8-5,9.65s-5.05-.1-5.05-3.82,2.26-8,5.05-9.64S191.88,379.5,191.88,383.22Z" style="fill:#fafafa"></path><path d="M148.48,413.84l-7-.33c-.77,0-.77-1.49,0-2.41l7-8.39c.67-.79,1.43-.59,1.43.39v8.71C149.91,412.79,149.15,413.87,148.48,413.84Z" style="fill:#fafafa"></path><path d="M231.59,361.1a7.91,7.91,0,0,0,.06-.84,6.17,6.17,0,0,0-.06-.77l1.1-1.49a.51.51,0,0,0,.09-.5l-1-1.72c-.07-.11-.23-.08-.34.08l-1.12,1.49a1.91,1.91,0,0,0-1-.21v-1.7c0-.18-.11-.27-.25-.19l-2,1.15a.6.6,0,0,0-.25.48v1.7a7.79,7.79,0,0,0-1,1.4l-1.11-.2c-.12,0-.28.12-.35.31l-1,2.87c-.07.19,0,.37.1.39l1.1.22a7.89,7.89,0,0,0-.05.84,6.23,6.23,0,0,0,.05.77l-1.1,1.5a.52.52,0,0,0-.1.52l1,1.7c.07.13.23.1.35-.07l1.11-1.5a1.86,1.86,0,0,0,1,.21v1.7c0,.18.11.27.25.19l2-1.15a.6.6,0,0,0,.25-.48v-1.7a8.77,8.77,0,0,0,1-1.4l1.12.21c.11,0,.27-.12.34-.32l1-2.85c.07-.21,0-.39-.09-.42Zm-3.54,3.78c-1.05.6-1.9,0-1.9-1.44a4.57,4.57,0,0,1,1.9-3.64c1-.6,1.9,0,1.9,1.44A4.57,4.57,0,0,1,228.05,364.88Z" style="fill:#fafafa"></path><path d="M244.52,81.76a7.12,7.12,0,0,0-3.47,1.07l-.66.38-30.66,17.7-.17.1a4.15,4.15,0,0,0-1.64,3,5.12,5.12,0,0,1-2.42,4L169,129.16a2.57,2.57,0,0,1-1.26.38,1.68,1.68,0,0,1-1.63-1.89c0-.29-.06-1-.66-1a1.45,1.45,0,0,0-.68.22l-2,1.18-31.35,18.1a10.83,10.83,0,0,0-1.26.86l-.41.37-.2.18a14.31,14.31,0,0,0-4.47,9.59v32.75L248.68,118.5V87.23C248.68,83.86,247.08,81.76,244.52,81.76Z" style="fill:#455a64"></path><path d="M133.93,157.25a.39.39,0,0,1,0,.18.31.31,0,0,1-.12.13l-.25.15c-.05,0-.08,0-.12,0a.14.14,0,0,1-.05-.12v-4.5l-1,1.57a.31.31,0,0,1-.12.13.13.13,0,0,1-.11,0l-.15-.17a.17.17,0,0,1,0-.15.43.43,0,0,1,.06-.18l1.31-2.09.1-.12.1-.06.25-.15a.13.13,0,0,1,.12,0,.17.17,0,0,1,0,.13Z" style="fill:#fafafa"></path><path d="M136.51,155.76a.49.49,0,0,1,0,.19.3.3,0,0,1-.12.13l-.25.14a.08.08,0,0,1-.11,0s0-.06,0-.12v-4.5l-1,1.58a.34.34,0,0,1-.12.12.12.12,0,0,1-.12,0l-.14-.17a.2.2,0,0,1,0-.14.49.49,0,0,1,.07-.19l1.31-2.09a.27.27,0,0,1,.1-.11l.09-.07.25-.14s.09,0,.12,0a.14.14,0,0,1,0,.12Z" style="fill:#fafafa"></path><path d="M138,151.31a.11.11,0,0,1,.12,0,.17.17,0,0,1,.05.13V152a.41.41,0,0,1-.05.18.26.26,0,0,1-.12.13l-.41.24a.08.08,0,0,1-.11,0,.16.16,0,0,1-.05-.13v-.54a.49.49,0,0,1,.05-.19.36.36,0,0,1,.11-.13Zm0,2.85a.13.13,0,0,1,.12,0,.16.16,0,0,1,.05.13v.54a.49.49,0,0,1-.05.19.3.3,0,0,1-.12.13l-.41.23a.09.09,0,0,1-.11,0,.17.17,0,0,1-.05-.13v-.55a.41.41,0,0,1,.05-.18.29.29,0,0,1,.11-.13Z" style="fill:#fafafa"></path><path d="M139.37,152.84a.49.49,0,0,0,.35.41.86.86,0,0,0,.63-.13,2.08,2.08,0,0,0,.38-.3,1.74,1.74,0,0,0,.3-.4,1.81,1.81,0,0,0,.21-.49,2,2,0,0,0,.08-.56,1.24,1.24,0,0,0-.08-.47.45.45,0,0,0-.21-.25.43.43,0,0,0-.3-.05,1.07,1.07,0,0,0-.38.15,1.43,1.43,0,0,0-.37.28,1.78,1.78,0,0,0-.23.28l-.16.24a.49.49,0,0,1-.16.16l-.31.18a.09.09,0,0,1-.1,0,.11.11,0,0,1,0-.1l.19-2.83a.39.39,0,0,1,0-.18.34.34,0,0,1,.12-.14l2.16-1.24a.09.09,0,0,1,.12,0,.14.14,0,0,1,0,.12v.29a.45.45,0,0,1,0,.19.51.51,0,0,1-.12.13l-1.78,1-.1,1.47a2.63,2.63,0,0,1,.29-.29,2,2,0,0,1,.45-.32,1.42,1.42,0,0,1,.6-.22.79.79,0,0,1,.49.09.82.82,0,0,1,.34.41,1.92,1.92,0,0,1,.12.73,3.22,3.22,0,0,1-.12.88,3.32,3.32,0,0,1-.34.8,3.23,3.23,0,0,1-.49.66,2.64,2.64,0,0,1-.6.48,1.72,1.72,0,0,1-.59.22.88.88,0,0,1-.49,0,.7.7,0,0,1-.34-.3,1.12,1.12,0,0,1-.13-.55.28.28,0,0,1,0-.15.25.25,0,0,1,.09-.11l.28-.16s.07,0,.1,0S139.36,152.79,139.37,152.84Z" style="fill:#fafafa"></path><path d="M143,150.86a.9.9,0,0,0,.08.21.3.3,0,0,0,.17.14.7.7,0,0,0,.29,0A2.14,2.14,0,0,0,144,151a2,2,0,0,0,.66-.63,2.48,2.48,0,0,0,.2-.44,1.7,1.7,0,0,0,.08-.51.86.86,0,0,0-.08-.4.33.33,0,0,0-.19-.18.62.62,0,0,0-.3,0,1.72,1.72,0,0,0-.37.17l-.51.29a.11.11,0,0,1-.12,0,.17.17,0,0,1,0-.13v-.3a.49.49,0,0,1,0-.15,1,1,0,0,0,.07-.15l1.1-2.21-1.76,1a.09.09,0,0,1-.12,0,.14.14,0,0,1-.05-.12V147a.41.41,0,0,1,.05-.18c0-.06.07-.11.12-.13l2.41-1.39a.11.11,0,0,1,.12,0,.17.17,0,0,1,0,.13v.29a.38.38,0,0,1,0,.17l-.07.18-1.09,2.18a1.65,1.65,0,0,1,.56-.2.64.64,0,0,1,.44.09.7.7,0,0,1,.28.36,1.6,1.6,0,0,1,.1.63,2.79,2.79,0,0,1-.12.81,3.63,3.63,0,0,1-.33.75,3.3,3.3,0,0,1-.48.62,3.12,3.12,0,0,1-.59.47,2.34,2.34,0,0,1-.71.28.85.85,0,0,1-.49-.05.65.65,0,0,1-.29-.3,1.16,1.16,0,0,1-.1-.47.28.28,0,0,1,0-.15.35.35,0,0,1,.09-.11l.29-.16s.08,0,.1,0A.15.15,0,0,1,143,150.86Z" style="fill:#fafafa"></path><path d="M152.54,141.25h0m0,0-1.88,6.43v-2.8l-2.1,1.21,4-4.84m0-.48h0a.42.42,0,0,0-.23.08.39.39,0,0,0-.1.08l0,0-4,4.84a.47.47,0,0,0,0,.61.5.5,0,0,0,.37.17.53.53,0,0,0,.24-.06l1.38-.8v2a.48.48,0,0,0,.41.48h.07a.48.48,0,0,0,.46-.34l1.87-6.39a.58.58,0,0,0,0-.18.49.49,0,0,0-.48-.48Zm0,1h0Z" style="fill:#fafafa"></path><polygon points="217.97 108.89 216.94 109.48 216.94 107.48 217.97 106.89 217.97 108.89" style="fill:#fafafa"></polygon><polygon points="219.59 107.95 218.56 108.55 218.56 105.68 219.59 105.09 219.59 107.95" style="fill:#fafafa"></polygon><polygon points="221.21 107.02 220.19 107.61 220.19 103.66 221.21 103.06 221.21 107.02" style="fill:#fafafa"></polygon><polygon points="222.84 106.08 221.81 106.67 221.81 101.67 222.84 101.08 222.84 106.08" style="fill:#00DB03"></polygon><path d="M230,96.82a7.66,7.66,0,0,0-2.72,3l.68.54a5.58,5.58,0,0,1,2-2.28,1.83,1.83,0,0,1,2-.08l.68-1.32A2.47,2.47,0,0,0,230,96.82Zm-1.77,3.79.62.49A3.24,3.24,0,0,1,230,99.81a1,1,0,0,1,1.15,0l.62-1.21a1.55,1.55,0,0,0-1.77.06A5,5,0,0,0,228.21,100.61Zm.91.73.86.68.86-1.69a.77.77,0,0,0-.86,0A2.38,2.38,0,0,0,229.12,101.34Z" style="fill:#fafafa"></path><path d="M242.34,89.82c.36-.21.66,0,.66.5v3.23a1.6,1.6,0,0,1-.66,1.27l-5.76,3.33c-.37.21-.67,0-.67-.51V94.42a1.58,1.58,0,0,1,.67-1.27l5.76-3.33m0-.28-5.76,3.33a2.09,2.09,0,0,0-.87,1.67v3.22c0,.64.39.94.87.66l5.76-3.32a2.1,2.1,0,0,0,.87-1.67V90.2c0-.64-.39-.93-.87-.66Z" style="fill:#00DB03"></path><path d="M240,95.36l-3.25,1.88c-.15.08-.27,0-.27-.21V94.36a.66.66,0,0,1,.27-.52L240,92c.14-.09.27,0,.27.2v2.68A.65.65,0,0,1,240,95.36Z" style="fill:#fafafa"></path><path d="M243.83,92.33l-.23.14V90.72l.23-.13c.12-.08.23.26.23.74A1.6,1.6,0,0,1,243.83,92.33Z" style="fill:#00DB03"></path><path d="M243.6,110.91a11.46,11.46,0,0,1-1.66,5.65,8.55,8.55,0,0,1-2.91,3.07,3,3,0,0,1-2.89.29c-1-.53-1.67-1.85-1.67-3.74,0-3.36,2.05-7.26,4.56-8.72S243.6,107.55,243.6,110.91Z" style="fill:#00DB03"></path><path d="M243.6,110.91a11.46,11.46,0,0,1-1.66,5.65,8.55,8.55,0,0,1-2.91,3.07,3,3,0,0,1-2.89.29c-1-.53-1.67-1.85-1.67-3.74,0-3.36,2.05-7.26,4.56-8.72S243.6,107.55,243.6,110.91Z" style="fill:#fff;opacity:0.75"></path><path d="M240.49,111.48a3.46,3.46,0,0,1-1.45,2.76c-.8.47-1.45,0-1.45-1.09a3.47,3.47,0,0,1,1.45-2.77C239.84,109.92,240.49,110.41,240.49,111.48Z" style="fill:#00DB03"></path><path d="M241.94,115.3v1.26a8.55,8.55,0,0,1-2.91,3.07,3,3,0,0,1-2.89.29v-1.27a3.36,3.36,0,0,1,1.4-2.68l3-1.73C241.31,113.8,241.94,114.27,241.94,115.3Z" style="fill:#00DB03"></path><path d="M141.09,162.39v11.2l-1.19.69v-7.23q0-.44,0-1l-2.2,7.63a1.13,1.13,0,0,1-.48.73l-.19.11c-.21.13-.37.06-.48-.18l-2.22-5.1,0,.49c0,.16,0,.31,0,.45v7.23l-1.2.69V167l1-.59.16-.09a.27.27,0,0,1,.12,0,.12.12,0,0,1,.09,0,.56.56,0,0,1,.09.14l2.17,5a4.09,4.09,0,0,1,.16.42l.15.46c0-.22.09-.43.14-.64s.11-.41.16-.61l2.15-7.44q0-.14.09-.24a.56.56,0,0,1,.1-.15l.11-.11.16-.1Z" style="fill:#fafafa"></path><path d="M148.94,169.06l-1.05.6a.25.25,0,0,1-.28,0,.44.44,0,0,1-.17-.24l-.54-2-3,1.74-.55,2.6a1.87,1.87,0,0,1-.15.41.8.8,0,0,1-.29.31l-1.06.61,2.87-12.84,1.37-.8Zm-2.39-2.85-.88-3.21a5.27,5.27,0,0,1-.14-.52c-.05-.2-.09-.41-.14-.65,0,.29-.09.56-.14.82s-.09.48-.13.68l-.88,4.21Z" style="fill:#fafafa"></path><path d="M155.37,165.34l-1.22.71c-.23.13-.4.09-.5-.13l-1.53-2.7a.36.36,0,0,0-.19-.18.41.41,0,0,0-.3.09l-.58.34v4.37l-1.36.78V157.43l2.22-1.29a3.54,3.54,0,0,1,1.27-.49,1.16,1.16,0,0,1,.87.16,1.3,1.3,0,0,1,.5.73,3.86,3.86,0,0,1,.16,1.21,6.17,6.17,0,0,1-.1,1.13,6.53,6.53,0,0,1-.32,1.09,5.28,5.28,0,0,1-.5,1,5.5,5.5,0,0,1-.68.89.56.56,0,0,1,.24.13.94.94,0,0,1,.2.26Zm-3.48-3.86a2.49,2.49,0,0,0,.67-.53,3.38,3.38,0,0,0,.47-.67,3.6,3.6,0,0,0,.27-.78,3.84,3.84,0,0,0,.09-.83c0-.57-.12-.94-.36-1.1s-.62-.1-1.12.18l-.86.5V162Z" style="fill:#fafafa"></path><path d="M157.51,157.6l.32-.18a1.18,1.18,0,0,0,.32-.26,2.36,2.36,0,0,0,.22-.39l2-5.07a1.78,1.78,0,0,1,.27-.5,1.13,1.13,0,0,1,.35-.29l1.16-.68-2.45,6.07a3.23,3.23,0,0,1-.45.86.49.49,0,0,1,.3.09.94.94,0,0,1,.26.29l2.52,3.78-1.19.69a.51.51,0,0,1-.36.11.4.4,0,0,1-.2-.19l-2.05-3a.34.34,0,0,0-.23-.17.62.62,0,0,0-.36.13l-.43.24v4.93l-1.35.78v-11.2l1.35-.78Z" style="fill:#fafafa"></path><path d="M164.42,150.58v3.11l2.54-1.47v1.6l-2.54,1.47v3.17l3.22-1.87v1.67l-4.58,2.65v-11.2l4.58-2.65v1.66Z" style="fill:#fafafa"></path><path d="M173.92,145.15l-2.19,1.27v9.48l-1.35.78V147.2l-2.2,1.26v-1.71l5.74-3.31Z" style="fill:#fafafa"></path><path d="M177.24,141.52a3.2,3.2,0,0,1,1.26-.46,1.21,1.21,0,0,1,.88.22,1.64,1.64,0,0,1,.52.84,4.75,4.75,0,0,1,.17,1.34,7,7,0,0,1-.18,1.59,6.13,6.13,0,0,1-.53,1.47,5.55,5.55,0,0,1-.88,1.27,5.25,5.25,0,0,1-1.24,1l-1,.58v3.94l-1.35.78V142.89Zm0,5.63a2.52,2.52,0,0,0,.65-.52,2.85,2.85,0,0,0,.46-.67,3.5,3.5,0,0,0,.27-.81,4.46,4.46,0,0,0,.09-.91,2.78,2.78,0,0,0-.09-.76.9.9,0,0,0-.27-.46.59.59,0,0,0-.46-.13,1.8,1.8,0,0,0-.65.24l-1,.59v4Z" style="fill:#fafafa"></path><path d="M185.36,146.31V148l-4.26,2.46v-11.2l1.35-.78V148Z" style="fill:#fafafa"></path><path d="M192.56,143.87l-1.05.61a.25.25,0,0,1-.28,0,.44.44,0,0,1-.17-.24l-.54-2-3,1.74-.54,2.59a1.45,1.45,0,0,1-.16.42.71.71,0,0,1-.28.31l-1.06.61,2.86-12.85,1.38-.79ZM190.17,141l-.89-3.22c0-.14-.09-.31-.13-.51s-.1-.42-.14-.65c0,.29-.09.56-.14.82s-.09.48-.13.67l-.88,4.22Z" style="fill:#fafafa"></path><path d="M198.09,138a.15.15,0,0,1,.2,0l.53.58a7.75,7.75,0,0,1-1.09,1.92,5.41,5.41,0,0,1-1.55,1.35,2.53,2.53,0,0,1-1.46.41,1.66,1.66,0,0,1-1.1-.54,3.39,3.39,0,0,1-.7-1.41,8.55,8.55,0,0,1-.25-2.16,11.76,11.76,0,0,1,1-4.7,8.34,8.34,0,0,1,1.14-1.83,5.26,5.26,0,0,1,1.46-1.27,2.54,2.54,0,0,1,1.41-.41,1.62,1.62,0,0,1,1,.45l-.45,1.23a.88.88,0,0,1-.1.22.46.46,0,0,1-.17.17.18.18,0,0,1-.16,0l-.18-.06-.22-.08a.84.84,0,0,0-.29,0,1.42,1.42,0,0,0-.38.06,2.19,2.19,0,0,0-.51.23,3.4,3.4,0,0,0-.89.78,5.41,5.41,0,0,0-.7,1.18,7.77,7.77,0,0,0-.45,1.5,9,9,0,0,0-.16,1.76,6.35,6.35,0,0,0,.17,1.58,2.44,2.44,0,0,0,.47,1,1,1,0,0,0,.7.36,1.43,1.43,0,0,0,.87-.23,4.81,4.81,0,0,0,.5-.33,5,5,0,0,0,.41-.39c.12-.14.24-.29.36-.46s.22-.37.33-.59a1,1,0,0,1,.11-.17A.29.29,0,0,1,198.09,138Z" style="fill:#fafafa"></path><path d="M201.11,129.4v3.1l2.54-1.47v1.61l-2.54,1.47v3.16l3.23-1.86v1.66l-4.59,2.65V128.53l4.59-2.65v1.65Z" style="fill:#fafafa"></path><path d="M244.52,82.23h0c2.31,0,3.69,1.87,3.69,5V364a13.73,13.73,0,0,1-6.12,10.61L130.66,438.91a5,5,0,0,1-2.48.79c-1.69,0-2.7-1.41-2.7-3.77V157.16a13.78,13.78,0,0,1,4.32-9.23l.21-.2.36-.33a11.2,11.2,0,0,1,1.23-.84l31.34-18.1,2.05-1.17a1,1,0,0,1,.44-.16c.19,0,.19.47.19.53a2.14,2.14,0,0,0,2.1,2.35,2.92,2.92,0,0,0,1.49-.45l36.53-21.08a5.65,5.65,0,0,0,2.65-4.43,3.69,3.69,0,0,1,1.44-2.66l.14-.08,30.66-17.7.65-.38a6.75,6.75,0,0,1,3.24-1m0-.94a7.61,7.61,0,0,0-3.71,1.13l-.65.38L209.5,100.5l-.21.13a4.63,4.63,0,0,0-1.84,3.42,4.7,4.7,0,0,1-2.18,3.62l-36.53,21.08a2,2,0,0,1-1,.32c-.69,0-1.16-.52-1.16-1.41s-.46-1.46-1.13-1.46a1.86,1.86,0,0,0-.91.28c-1.13.64-2.05,1.18-2.05,1.18l-31.34,18.09a11.41,11.41,0,0,0-1.34.92l-.62.56a14.71,14.71,0,0,0-4.62,9.93V435.93c0,3,1.48,4.7,3.63,4.7a5.92,5.92,0,0,0,2.95-.91l111.43-64.33A14.58,14.58,0,0,0,249.14,364V87.23c0-3.76-1.88-5.94-4.62-5.94Z" style="fill:#00DB03"></path></g><g id="freepik--Awning--inject-31"><polygon points="118.2 135.94 172.05 167.05 283.72 102.58 229.85 71.47 118.2 135.94" style="fill:#f5f5f5"></polygon><polygon points="118.2 135.94 172.05 167.05 184.46 159.89 130.61 128.77 118.2 135.94" style="fill:#00DB03"></polygon><polygon points="143.02 121.61 196.87 152.73 209.27 145.56 155.43 114.44 143.02 121.61" style="fill:#00DB03"></polygon><polygon points="167.83 107.28 221.68 138.4 234.09 131.24 180.24 100.12 167.83 107.28" style="fill:#00DB03"></polygon><polygon points="192.65 92.95 246.5 124.07 258.9 116.91 205.06 85.79 192.65 92.95" style="fill:#00DB03"></polygon><polygon points="217.46 78.63 271.31 109.75 283.72 102.58 229.87 71.46 217.46 78.63" style="fill:#00DB03"></polygon><path d="M184.46,159.89c0,4.57,2.78,6.67,6.21,4.69s6.2-7.29,6.2-11.85Z" style="fill:#e6e6e6"></path><path d="M209.28,145.57c0,4.56,2.78,6.67,6.21,4.69s6.2-7.29,6.2-11.86Z" style="fill:#e6e6e6"></path><path d="M234.1,131.24c0,4.57,2.78,6.67,6.21,4.69s6.2-7.29,6.2-11.85Z" style="fill:#e6e6e6"></path><path d="M258.92,116.92c0,4.56,2.78,6.67,6.21,4.69s6.2-7.29,6.2-11.86Z" style="fill:#e6e6e6"></path><path d="M172.05,167.05c0,4.57,2.78,6.67,6.21,4.69s6.2-7.28,6.2-11.85Z" style="fill:#00DB03"></path><path d="M196.87,152.73c0,4.57,2.78,6.67,6.21,4.69s6.2-7.29,6.2-11.86Z" style="fill:#00DB03"></path><path d="M221.69,138.4c0,4.57,2.78,6.67,6.21,4.69s6.2-7.28,6.2-11.85Z" style="fill:#00DB03"></path><path d="M246.51,124.08c0,4.57,2.78,6.67,6.21,4.69s6.2-7.29,6.2-11.86Z" style="fill:#00DB03"></path><path d="M271.33,109.75c0,4.57,2.78,6.67,6.21,4.69s6.2-7.28,6.2-11.85Z" style="fill:#00DB03"></path><g style="opacity:0.2"><path d="M172.05,167.05c0,4.57,2.78,6.67,6.21,4.69s6.2-7.28,6.2-11.85Z"></path><path d="M196.87,152.73c0,4.57,2.78,6.67,6.21,4.69s6.2-7.29,6.2-11.86Z"></path><path d="M221.69,138.4c0,4.57,2.78,6.67,6.21,4.69s6.2-7.28,6.2-11.85Z"></path><path d="M246.51,124.08c0,4.57,2.78,6.67,6.21,4.69s6.2-7.29,6.2-11.86Z"></path><path d="M271.33,109.75c0,4.57,2.78,6.67,6.21,4.69s6.2-7.28,6.2-11.85Z"></path></g></g></g><g id="freepik--Products--inject-31"><g id="freepik--Product--inject-31"><path d="M190.24,226l-41.6,24c-.58.33-1,0-1-.8v-.21a2.53,2.53,0,0,1,1-2l41.6-24c.58-.33,1,0,1,.8V224A2.53,2.53,0,0,1,190.24,226Z" style="fill:#e0e0e0"></path><path d="M190.24,232.49l-41.6,24c-.58.33-1,0-1-.8v-.21a2.53,2.53,0,0,1,1-2l41.6-24c.58-.33,1,0,1,.8v.21A2.53,2.53,0,0,1,190.24,232.49Z" style="fill:#e0e0e0"></path><g id="freepik--stars--inject-31"><path d="M166.75,253.55l.49,1a.13.13,0,0,0,.16.06l1.1-.42c.18-.07.25.18.12.41l-.8,1.49a.54.54,0,0,0-.06.29l.19,1.35c0,.21-.15.5-.31.48l-1-.12a.23.23,0,0,0-.2.11l-1,1.26c-.16.2-.34.12-.31-.12l.19-1.57a.25.25,0,0,0-.06-.22l-.8-.57c-.12-.09-.05-.42.12-.55l1.1-.85a.49.49,0,0,0,.16-.25l.49-1.61C166.45,253.52,166.67,253.39,166.75,253.55Z" style="fill:#00DB03"></path><path d="M172.31,250.37l.49,1a.12.12,0,0,0,.16.07l1.1-.43c.18-.06.24.18.12.42l-.8,1.49a.52.52,0,0,0-.06.29l.19,1.35c0,.21-.15.49-.31.47l-1-.12a.27.27,0,0,0-.2.12l-1,1.25c-.16.2-.34.13-.31-.12l.19-1.56a.25.25,0,0,0-.06-.22l-.8-.57c-.12-.1-.05-.42.12-.56l1.1-.84a.54.54,0,0,0,.16-.25l.49-1.61C172,250.33,172.23,250.2,172.31,250.37Z" style="fill:#00DB03"></path><path d="M177.87,247.19l.49,1a.11.11,0,0,0,.16.06l1.1-.42c.17-.07.24.18.12.42l-.8,1.49a.49.49,0,0,0-.06.28l.19,1.35c0,.22-.15.5-.31.48l-1-.12a.26.26,0,0,0-.2.11l-1,1.26c-.16.2-.34.13-.31-.12l.19-1.57c0-.1,0-.18-.06-.21l-.8-.58c-.12-.09-.05-.41.12-.55l1.1-.85A.46.46,0,0,0,177,249l.49-1.61C177.57,247.15,177.79,247,177.87,247.19Z" style="fill:#00DB03"></path><path d="M183.43,244l.49,1.05a.12.12,0,0,0,.16.06l1.1-.42c.17-.07.24.18.12.41l-.8,1.49a.54.54,0,0,0-.06.29l.19,1.35c0,.22-.15.5-.31.48l-1-.12a.23.23,0,0,0-.2.11l-1,1.26c-.16.2-.34.13-.31-.12l.19-1.57a.25.25,0,0,0-.06-.22l-.8-.57c-.13-.09-.06-.42.12-.55l1.1-.85a.45.45,0,0,0,.16-.25l.49-1.61C183.13,244,183.35,243.84,183.43,244Z" style="fill:#00DB03"></path><path d="M189,240.82l.49,1a.12.12,0,0,0,.16.07l1.1-.43c.17-.06.24.18.12.42l-.8,1.49a.52.52,0,0,0-.06.29l.19,1.35c0,.21-.15.49-.31.48l-1-.13a.27.27,0,0,0-.2.12l-1,1.25c-.16.2-.34.13-.31-.12l.19-1.56a.25.25,0,0,0-.06-.22l-.8-.57c-.13-.09-.06-.42.12-.56l1.1-.84a.54.54,0,0,0,.16-.25l.49-1.61C188.69,240.78,188.91,240.65,189,240.82Z" style="fill:#455a64"></path></g></g><g id="freepik--product--inject-31"><g id="freepik--speech-bubble--inject-31"><g id="freepik--speech-bubble--inject-31"><path d="M212.37,238.85V167.21a2.23,2.23,0,0,1,1-1.77l52.23-30.16c.56-.33,1-.06,1,.59v71.64a2.26,2.26,0,0,1-1,1.77L213.4,239.44C212.83,239.76,212.37,239.5,212.37,238.85Z" style="fill:#fafafa"></path><path d="M266.14,136.09h0m-.44.26v71.16a1.36,1.36,0,0,1-.55,1l-51.82,29.91V167.21a1.33,1.33,0,0,1,.54-1l51.83-29.91m.38-1.21a.86.86,0,0,0-.45.14L213.4,165.44a2.23,2.23,0,0,0-1,1.77v71.64c0,.46.23.73.57.73a1,1,0,0,0,.46-.14l52.23-30.16a2.26,2.26,0,0,0,1-1.77V135.87c0-.46-.23-.73-.57-.73Z" style="fill:#00DB03"></path><path d="M266.64,135.68c-.08-.51-.5-.7-1-.4L213.4,165.44a2,2,0,0,0-.72.76L207,163a2,2,0,0,1,.7-.73l52.23-30.15a2.28,2.28,0,0,1,2,0l3.66,2.05A2.22,2.22,0,0,1,266.64,135.68Z" style="fill:#00DB03"></path><g style="opacity:0.5"><path d="M266.64,135.68c-.08-.51-.5-.7-1-.4L213.4,165.44a2,2,0,0,0-.72.76L207,163a2,2,0,0,1,.7-.73l52.23-30.15a2.28,2.28,0,0,1,2,0l3.66,2.05A2.22,2.22,0,0,1,266.64,135.68Z" style="fill:#fff"></path></g><path d="M213.4,239.44a2.42,2.42,0,0,1-2.07,0l-3.64-2.09a2.2,2.2,0,0,1-1-1.75V164a2.07,2.07,0,0,1,.32-1l5.7,3.25a2,2,0,0,0-.31,1v71.64C212.37,239.44,212.79,239.79,213.4,239.44Z" style="fill:#00DB03"></path></g><polygon points="217.94 169.15 260.59 144.52 260.59 175.86 217.94 200.49 217.94 169.15" style="fill:#fff"></polygon><path d="M217.94,201a.5.5,0,0,1-.24-.06.49.49,0,0,1-.24-.42V169.14a.47.47,0,0,1,.24-.41l42.65-24.62a.46.46,0,0,1,.48,0,.48.48,0,0,1,.24.41v31.34a.48.48,0,0,1-.24.41L218.18,200.9A.53.53,0,0,1,217.94,201Zm.47-31.54v30.24l41.69-24.08V145.35Z" style="fill:#455a64"></path><path d="M228.69,169.93c1.05-3-2.08-3.19-4.37-1.06C224.07,170.85,227.43,173.56,228.69,169.93Z" style="fill:#00DB03"></path><path d="M228.69,169.93a2.8,2.8,0,0,0,.1-.36c-.62-1.27-2.57,0-3.69,1.3C226.12,172,227.86,172.32,228.69,169.93Z" style="opacity:0.15"></path><path d="M228.44,170.15c-.86-2-3.89,2-4.72,5.39C224.7,176.32,229.49,172.6,228.44,170.15Z" style="fill:#00DB03"></path><path d="M229.77,168.28l-2.14,9.5a2.19,2.19,0,0,0,1.6,2.6l11.53,2.87,13-18.21a2.2,2.2,0,0,0,.31-1.91l-2.3-7.53a40.78,40.78,0,0,1-11,9.5C234,169,229.77,168.28,229.77,168.28Z" style="fill:#00DB03"></path><g style="opacity:0.30000000000000004"><path d="M229.77,168.28l-2.14,9.5a2.19,2.19,0,0,0,1.6,2.6l11.53,2.87,13-18.21a2.2,2.2,0,0,0,.31-1.91l-2.3-7.53a40.78,40.78,0,0,1-11,9.5C234,169,229.77,168.28,229.77,168.28Z" style="fill:#fff"></path></g><path d="M232.32,178.83c-2.13-2.28-2.51-4.47-1.66-10.49a5.2,5.2,0,0,1-.89-.06l-2.14,9.5a2.19,2.19,0,0,0,1.6,2.6l11.53,2.87S234.56,181.23,232.32,178.83Z" style="fill:#00DB03"></path><path d="M220.29,220.18a1.26,1.26,0,0,1,.55,0,1.1,1.1,0,0,1,.42.24,1,1,0,0,1,.27.39,1.17,1.17,0,0,1,.11.49.41.41,0,0,1,0,.19.25.25,0,0,1-.1.12l-.88.51a.24.24,0,0,1-.15,0,.21.21,0,0,1-.12,0l-.06-.07a.36.36,0,0,0-.12-.08.44.44,0,0,0-.2,0,.79.79,0,0,0-.3.11,1.31,1.31,0,0,0-.24.17,1.34,1.34,0,0,0-.21.2,1,1,0,0,0-.15.24.71.71,0,0,0,0,.29.35.35,0,0,0,.06.23.29.29,0,0,0,.21.06,1.76,1.76,0,0,0,.4-.06l.62-.16A2.23,2.23,0,0,1,221,223a.78.78,0,0,1,.46.17,1,1,0,0,1,.27.46,2.91,2.91,0,0,1,.09.79,3.55,3.55,0,0,1-.1.86,4.63,4.63,0,0,1-.3.81,4,4,0,0,1-1.08,1.35v.74a.44.44,0,0,1,0,.22.36.36,0,0,1-.13.16l-.87.5a.1.1,0,0,1-.13,0,.22.22,0,0,1-.05-.17v-.76a1.27,1.27,0,0,1-.58,0,1,1,0,0,1-.45-.23,1,1,0,0,1-.28-.42,1.7,1.7,0,0,1-.11-.57.41.41,0,0,1,.05-.18.27.27,0,0,1,.09-.13l.88-.5a.21.21,0,0,1,.15,0,.21.21,0,0,1,.1,0l.08.09a.58.58,0,0,0,.15.11.5.5,0,0,0,.23,0,1,1,0,0,0,.33-.12,2.41,2.41,0,0,0,.6-.47.79.79,0,0,0,.24-.56.23.23,0,0,0-.09-.21.49.49,0,0,0-.26,0,2.53,2.53,0,0,0-.45.09l-.64.16a1,1,0,0,1-1-.17,1.87,1.87,0,0,1-.31-1.24,3.16,3.16,0,0,1,.08-.74,4,4,0,0,1,.25-.76,4.3,4.3,0,0,1,.41-.72,3.22,3.22,0,0,1,.54-.63v-.76a.48.48,0,0,1,.05-.23.31.31,0,0,1,.13-.16l.87-.5a.1.1,0,0,1,.13,0,.22.22,0,0,1,0,.17Z" style="fill:#455a64"></path><path d="M225.32,217.28a1.22,1.22,0,0,1,.54,0,1,1,0,0,1,.42.24,1,1,0,0,1,.28.39,1.34,1.34,0,0,1,.1.49.41.41,0,0,1,0,.19.25.25,0,0,1-.1.12l-.87.51c-.07,0-.12.05-.15,0a.21.21,0,0,1-.12-.05l-.07-.07a.28.28,0,0,0-.12-.08.43.43,0,0,0-.2,0,.65.65,0,0,0-.3.11,1.77,1.77,0,0,0-.24.17,1.34,1.34,0,0,0-.21.2.89.89,0,0,0-.2.53.35.35,0,0,0,.06.23.32.32,0,0,0,.22.06,1.84,1.84,0,0,0,.4-.06l.61-.16a2.3,2.3,0,0,1,.65-.08.75.75,0,0,1,.45.17.92.92,0,0,1,.28.46,2.91,2.91,0,0,1,.09.79,3.56,3.56,0,0,1-.11.86,4,4,0,0,1-.3.81,4.41,4.41,0,0,1-.47.74,3.85,3.85,0,0,1-.6.61v.73a.46.46,0,0,1-.06.23.3.3,0,0,1-.12.16l-.88.5a.09.09,0,0,1-.13,0,.22.22,0,0,1,0-.16v-.76a1.43,1.43,0,0,1-.58,0,1.09,1.09,0,0,1-.44-.23.93.93,0,0,1-.29-.42,1.7,1.7,0,0,1-.1-.57.39.39,0,0,1,0-.18.24.24,0,0,1,.1-.13l.87-.5c.07,0,.12-.06.15,0a.25.25,0,0,1,.11,0l.08.09a.4.4,0,0,0,.14.11.53.53,0,0,0,.23,0,1,1,0,0,0,.34-.12,2.6,2.6,0,0,0,.59-.47.79.79,0,0,0,.24-.56.23.23,0,0,0-.09-.21.47.47,0,0,0-.26,0,2.45,2.45,0,0,0-.44.09l-.64.16a1,1,0,0,1-1-.18,1.83,1.83,0,0,1-.32-1.23,3.18,3.18,0,0,1,.09-.74,4,4,0,0,1,.25-.76,4.24,4.24,0,0,1,.4-.72,4.08,4.08,0,0,1,.54-.63v-.76a.59.59,0,0,1,0-.23.36.36,0,0,1,.13-.16l.88-.5q.08,0,.12,0a.22.22,0,0,1,.06.17Z" style="fill:#455a64"></path></g><path d="M260.11,185.68l-41.6,24c-.59.34-1.06,0-1.06-.79v-.21a2.49,2.49,0,0,1,1.06-2l41.6-24c.58-.34,1.05,0,1.05.79v.21A2.5,2.5,0,0,1,260.11,185.68Z" style="fill:#e0e0e0"></path><path d="M260.11,192.13l-41.6,24c-.59.34-1.06,0-1.06-.79v-.21a2.49,2.49,0,0,1,1.06-2l41.6-24c.58-.34,1.05,0,1.05.79v.21A2.5,2.5,0,0,1,260.11,192.13Z" style="fill:#e0e0e0"></path><g id="freepik--stars--inject-31"><path d="M236.62,213.2l.49,1a.11.11,0,0,0,.16.06l1.09-.42c.18-.07.25.18.12.42l-.79,1.49a.42.42,0,0,0-.06.28l.18,1.35c0,.22-.15.5-.3.48l-1-.12c-.06,0-.13,0-.19.11l-1,1.26c-.15.2-.34.13-.31-.12l.19-1.57c0-.1,0-.18-.06-.21l-.79-.58c-.13-.09-.06-.41.11-.55l1.1-.85a.46.46,0,0,0,.16-.24l.49-1.61C236.31,213.16,236.54,213,236.62,213.2Z" style="fill:#00DB03"></path><path d="M242.17,210l.5,1.05a.12.12,0,0,0,.16.06l1.09-.42c.18-.07.25.18.12.41l-.79,1.5a.42.42,0,0,0-.06.28l.18,1.35c0,.22-.15.5-.3.48l-1-.12c-.06,0-.13,0-.2.11l-1,1.26c-.15.2-.34.13-.31-.12l.19-1.57a.25.25,0,0,0-.06-.22l-.79-.57c-.13-.09-.06-.42.11-.55l1.1-.85a.45.45,0,0,0,.16-.25l.49-1.61C241.87,210,242.1,209.85,242.17,210Z" style="fill:#00DB03"></path><path d="M247.73,206.83l.5,1a.12.12,0,0,0,.16.07l1.09-.42c.18-.07.25.17.12.41l-.79,1.49a.45.45,0,0,0-.06.29l.18,1.35c0,.21-.15.5-.31.48l-1-.13a.29.29,0,0,0-.2.12l-1,1.25c-.15.2-.34.13-.31-.12l.19-1.56a.25.25,0,0,0-.06-.22l-.79-.57c-.13-.09-.06-.42.11-.55l1.1-.85a.49.49,0,0,0,.16-.25l.49-1.61C247.43,206.79,247.66,206.66,247.73,206.83Z" style="fill:#00DB03"></path><path d="M253.29,203.65l.49,1a.12.12,0,0,0,.16.06l1.1-.42c.18-.06.25.18.12.42l-.79,1.49a.52.52,0,0,0-.07.29l.19,1.35c0,.21-.15.49-.31.47l-1-.12c-.06,0-.13,0-.2.12l-1,1.25c-.15.2-.34.13-.31-.12l.19-1.57a.22.22,0,0,0-.06-.21l-.8-.58c-.12-.09,0-.41.12-.55l1.1-.84a.54.54,0,0,0,.16-.25l.49-1.61C253,203.61,253.22,203.48,253.29,203.65Z" style="fill:#00DB03"></path><path d="M258.85,200.46l.49,1a.12.12,0,0,0,.16.06l1.1-.42c.18-.07.25.18.12.41l-.79,1.5a.51.51,0,0,0-.07.28l.19,1.35c0,.22-.15.5-.31.48l-1-.12c-.06,0-.13,0-.2.11l-1,1.26c-.16.2-.34.13-.31-.12l.19-1.57c0-.1,0-.18-.06-.21l-.8-.58c-.12-.09-.05-.42.12-.55l1.1-.85a.46.46,0,0,0,.16-.24l.49-1.62C258.55,200.43,258.77,200.3,258.85,200.46Z" style="fill:#455a64"></path></g></g><g id="freepik--product--inject-31"><g id="freepik--speech-bubble--inject-31"><g id="freepik--speech-bubble--inject-31"><path d="M142.51,374.93V303.29a2.28,2.28,0,0,1,1-1.77l52.23-30.16c.57-.32,1-.06,1,.59V343.6a2.26,2.26,0,0,1-1,1.77l-52.23,30.15C143,375.85,142.51,375.59,142.51,374.93Z" style="fill:#fafafa"></path><path d="M196.28,272.17h0m-.45.26V343.6a1.33,1.33,0,0,1-.54.94l-51.82,29.92V303.29a1.31,1.31,0,0,1,.54-.94l51.82-29.92m.39-1.21a1,1,0,0,0-.46.14l-52.23,30.16a2.28,2.28,0,0,0-1,1.77v71.64c0,.47.23.73.57.73a.86.86,0,0,0,.45-.14l52.23-30.15a2.26,2.26,0,0,0,1-1.77V272c0-.46-.23-.73-.57-.73Z" style="fill:#00DB03"></path><path d="M196.77,271.77c-.08-.52-.5-.7-1-.41l-52.23,30.16a2.2,2.2,0,0,0-.72.76l-5.7-3.25a2,2,0,0,1,.71-.72l52.23-30.16a2.28,2.28,0,0,1,2,0l3.66,2.05A2.26,2.26,0,0,1,196.77,271.77Z" style="fill:#00DB03"></path><g style="opacity:0.5"><path d="M196.77,271.77c-.08-.52-.5-.7-1-.41l-52.23,30.16a2.2,2.2,0,0,0-.72.76l-5.7-3.25a2,2,0,0,1,.71-.72l52.23-30.16a2.28,2.28,0,0,1,2,0l3.66,2.05A2.26,2.26,0,0,1,196.77,271.77Z" style="fill:#fff"></path></g><path d="M143.53,375.52a2.33,2.33,0,0,1-2.06,0l-3.65-2.08a2.24,2.24,0,0,1-1-1.76V300.08a2.15,2.15,0,0,1,.33-1.05l5.69,3.25a2,2,0,0,0-.3,1v71.64C142.51,375.53,142.93,375.87,143.53,375.52Z" style="fill:#00DB03"></path></g><polygon points="148.07 305.23 190.73 280.61 190.73 311.94 148.08 336.57 148.07 305.23" style="fill:#fff"></polygon><path d="M148.08,337.05a.48.48,0,0,1-.24-.07.46.46,0,0,1-.24-.41V305.23a.46.46,0,0,1,.24-.41l42.65-24.63a.49.49,0,0,1,.47,0,.47.47,0,0,1,.24.41v31.34a.49.49,0,0,1-.24.42L148.31,337A.48.48,0,0,1,148.08,337.05Zm.47-31.54v30.23l41.7-24.07V281.43Z" style="fill:#455a64"></path><path d="M181.92,298.21c-1.06-2.32-1.19-2.84-2.31-3.49L159.19,306.5c-1.12,1.95-1.25,2.63-2.31,6.17-1.26,4.23-2.22,8.34-1.62,9h0c.85,2.16,6.85.76,14.13-3.44s13.28-9.73,14.13-12.89h0C184.14,304,183.18,301,181.92,298.21Z" style="fill:#00DB03"></path><path d="M169.4,318.25a53.36,53.36,0,0,0,10.28-7.6c-.84.54-1.62,1.2-2.41,1.81a25.68,25.68,0,0,1-6.83,3.79,10.32,10.32,0,0,1-4.73.79,4.78,4.78,0,0,1-3.87-2.54,6.84,6.84,0,0,1-.12-4.13,35.89,35.89,0,0,1,1.58-5.49l-.93-.21-3.18,1.83c-1.12,1.95-1.25,2.63-2.31,6.17-1.26,4.23-2.22,8.34-1.62,9h0C156.12,323.85,162.12,322.45,169.4,318.25Z" style="opacity:0.15"></path><path d="M180.17,295.69c0,2.25-4.82,6.86-10.77,10.29s-10.77,4.4-10.77,2.15,4.82-6.86,10.77-10.29S180.17,293.45,180.17,295.69Z" style="fill:#00DB03"></path><g style="opacity:0.30000000000000004"><path d="M180.17,295.69c0,2.25-4.82,6.86-10.77,10.29s-10.77,4.4-10.77,2.15,4.82-6.86,10.77-10.29S180.17,293.45,180.17,295.69Z" style="fill:#fff"></path></g><path d="M178,297c0,1.56-3.84,5.05-8.58,7.79s-8.58,3.68-8.58,2.11,3.84-5.05,8.58-7.78S178,295.39,178,297Z" style="fill:#00DB03;opacity:0.5"></path><path d="M163.21,307.44a24.83,24.83,0,0,0,6.19-2.69,35.42,35.42,0,0,0,6.19-4.46,25.31,25.31,0,0,0-6.19,2.7A35.94,35.94,0,0,0,163.21,307.44Z" style="opacity:0.15"></path><path d="M165.51,312.92a.35.35,0,0,1,0,.25c-.15.44-.51,1.7.35,2s1.43-.84,1.67-1.34a.79.79,0,0,1,.3-.36l1.57-.91,1.57-.9a.23.23,0,0,1,.3,0c.24.22.87.59,1.67-.59a2.16,2.16,0,0,0,.35-2.37.36.36,0,0,1,0-.25c.15-.45.51-1.7-.35-2s-1.43.83-1.67,1.34a.84.84,0,0,1-.3.36l-1.57.9-1.57.91a.24.24,0,0,1-.3,0c-.24-.23-.87-.59-1.67.59A2.16,2.16,0,0,0,165.51,312.92Z" style="fill:#fff"></path><path d="M150.43,356.27a1.13,1.13,0,0,1,.55,0,1.08,1.08,0,0,1,.42.23,1.36,1.36,0,0,1,.27.39,1.4,1.4,0,0,1,.11.5.41.41,0,0,1-.05.18.36.36,0,0,1-.09.13l-.88.5a.21.21,0,0,1-.15.05.23.23,0,0,1-.12-.06l-.06-.06a.32.32,0,0,0-.13-.08.41.41,0,0,0-.2,0,.88.88,0,0,0-.29.11,2.2,2.2,0,0,0-.25.17,1.89,1.89,0,0,0-.2.2,1.28,1.28,0,0,0-.15.25.68.68,0,0,0-.06.29.28.28,0,0,0,.07.22.29.29,0,0,0,.21.07,1.84,1.84,0,0,0,.4-.06l.62-.16a1.68,1.68,0,0,1,.64-.08.74.74,0,0,1,.46.17.94.94,0,0,1,.27.46,2.81,2.81,0,0,1,.09.79,3.05,3.05,0,0,1-.11.85,4,4,0,0,1-.3.82,3.78,3.78,0,0,1-.47.73,3.92,3.92,0,0,1-.6.62v.73a.64.64,0,0,1-.05.23.39.39,0,0,1-.13.15l-.88.51c-.05,0-.09,0-.12,0a.2.2,0,0,1-.06-.16v-.77a1.27,1.27,0,0,1-.58,0,1.07,1.07,0,0,1-.44-.22,1,1,0,0,1-.28-.42,1.48,1.48,0,0,1-.11-.57.43.43,0,0,1,0-.19.25.25,0,0,1,.1-.12l.88-.51a.26.26,0,0,1,.14,0,.22.22,0,0,1,.11,0l.08.09a.56.56,0,0,0,.15.1.38.38,0,0,0,.22,0,.67.67,0,0,0,.34-.12,2.64,2.64,0,0,0,.6-.46.85.85,0,0,0,.23-.57.22.22,0,0,0-.08-.2.43.43,0,0,0-.27,0,2.45,2.45,0,0,0-.44.08l-.64.17a1,1,0,0,1-1-.18,1.83,1.83,0,0,1-.32-1.23,3.33,3.33,0,0,1,.09-.75,4.3,4.3,0,0,1,.65-1.48,4.61,4.61,0,0,1,.54-.63v-.76a.49.49,0,0,1,.06-.23.27.27,0,0,1,.12-.15l.88-.51a.1.1,0,0,1,.13,0,.25.25,0,0,1,.05.17Z" style="fill:#455a64"></path><path d="M155.46,353.37a1.09,1.09,0,0,1,.54,0,1,1,0,0,1,.42.23,1.05,1.05,0,0,1,.27.39,1.22,1.22,0,0,1,.11.5.39.39,0,0,1,0,.18.28.28,0,0,1-.1.13l-.88.5a.26.26,0,0,1-.15.05.24.24,0,0,1-.11-.06l-.07-.06a.36.36,0,0,0-.12-.08.41.41,0,0,0-.2,0,1,1,0,0,0-.3.11l-.24.17a1.34,1.34,0,0,0-.21.2,1,1,0,0,0-.15.25.68.68,0,0,0,0,.29.32.32,0,0,0,.06.22.29.29,0,0,0,.21.07,1.76,1.76,0,0,0,.4-.06l.62-.16a2,2,0,0,1,.64-.09.79.79,0,0,1,.46.18,1,1,0,0,1,.28.46,2.81,2.81,0,0,1,.09.79,3.48,3.48,0,0,1-.11.85,4.26,4.26,0,0,1-.3.82,4.32,4.32,0,0,1-.47.73,5.89,5.89,0,0,1-.6.62v.73a.53.53,0,0,1-.06.23.38.38,0,0,1-.12.15l-.88.51a.1.1,0,0,1-.13,0s-.05-.09-.05-.17v-.76a1.27,1.27,0,0,1-.58,0,1.18,1.18,0,0,1-.45-.22,1.15,1.15,0,0,1-.28-.42,1.7,1.7,0,0,1-.11-.57.41.41,0,0,1,0-.19.31.31,0,0,1,.09-.12l.88-.51a.26.26,0,0,1,.15-.05.34.34,0,0,1,.11.05l.08.09a.39.39,0,0,0,.14.1.41.41,0,0,0,.23,0,.73.73,0,0,0,.34-.12,2.81,2.81,0,0,0,.59-.46.81.81,0,0,0,.24-.57.2.2,0,0,0-.09-.2.41.41,0,0,0-.26,0,1.78,1.78,0,0,0-.45.08l-.64.17a1,1,0,0,1-1-.18,1.84,1.84,0,0,1-.31-1.23,4,4,0,0,1,.08-.75,4.26,4.26,0,0,1,.26-.76,3.65,3.65,0,0,1,.4-.72,4.08,4.08,0,0,1,.54-.63v-.76a.48.48,0,0,1,.05-.23.33.33,0,0,1,.13-.15l.88-.51a.09.09,0,0,1,.12,0,.2.2,0,0,1,.06.16Z" style="fill:#455a64"></path></g><path d="M190.24,321.77l-41.6,24c-.58.33-1,0-1-.8v-.21a2.53,2.53,0,0,1,1-2l41.6-24c.58-.33,1,0,1,.8v.21A2.53,2.53,0,0,1,190.24,321.77Z" style="fill:#e0e0e0"></path><path d="M190.24,328.22l-41.6,24c-.58.33-1,0-1-.8v-.21a2.53,2.53,0,0,1,1-2l41.6-24c.58-.33,1,0,1,.8v.21A2.53,2.53,0,0,1,190.24,328.22Z" style="fill:#e0e0e0"></path><g id="freepik--stars--inject-31"><path d="M166.75,349.28l.49,1a.12.12,0,0,0,.16.07l1.1-.42c.18-.07.25.17.12.41l-.8,1.49a.52.52,0,0,0-.06.29l.19,1.35c0,.21-.15.5-.31.48l-1-.12a.23.23,0,0,0-.2.11l-1,1.26c-.16.19-.34.12-.31-.13l.19-1.56a.25.25,0,0,0-.06-.22l-.8-.57c-.12-.09-.05-.42.12-.55l1.1-.85a.49.49,0,0,0,.16-.25l.49-1.61C166.45,349.25,166.67,349.12,166.75,349.28Z" style="fill:#00DB03"></path><path d="M172.31,346.1l.49,1a.11.11,0,0,0,.16.06l1.1-.42c.18-.06.24.18.12.42l-.8,1.49a.51.51,0,0,0-.06.29l.19,1.35c0,.21-.15.49-.31.47l-1-.12a.24.24,0,0,0-.2.12l-1,1.25c-.16.2-.34.13-.31-.12l.19-1.57a.23.23,0,0,0-.06-.21l-.8-.57c-.12-.1-.05-.42.12-.56l1.1-.84a.54.54,0,0,0,.16-.25l.49-1.61C172,346.06,172.23,345.93,172.31,346.1Z" style="fill:#00DB03"></path><path d="M177.87,342.92l.49,1a.12.12,0,0,0,.16.06l1.1-.42c.17-.07.24.18.12.42l-.8,1.49a.49.49,0,0,0-.06.28l.19,1.35c0,.22-.15.5-.31.48l-1-.12a.23.23,0,0,0-.2.11l-1,1.26c-.16.2-.34.13-.31-.12l.19-1.57c0-.1,0-.18-.06-.21l-.8-.58c-.12-.09-.05-.42.12-.55l1.1-.85a.46.46,0,0,0,.16-.24l.49-1.61C177.57,342.88,177.79,342.75,177.87,342.92Z" style="fill:#00DB03"></path><path d="M183.43,339.73l.49,1a.13.13,0,0,0,.16.06l1.1-.42c.17-.07.24.18.12.41l-.8,1.49a.54.54,0,0,0-.06.29l.19,1.35c0,.22-.15.5-.31.48l-1-.12a.23.23,0,0,0-.2.11l-1,1.26c-.16.2-.34.12-.31-.12L182,344a.25.25,0,0,0-.06-.22l-.8-.57c-.13-.09-.06-.42.12-.55l1.1-.85a.49.49,0,0,0,.16-.25l.49-1.61C183.13,339.7,183.35,339.57,183.43,339.73Z" style="fill:#00DB03"></path><path d="M189,336.55l.49,1a.12.12,0,0,0,.16.07l1.1-.43c.17-.06.24.18.12.42l-.8,1.49a.52.52,0,0,0-.06.29l.19,1.35c0,.21-.15.49-.31.47l-1-.12a.27.27,0,0,0-.2.12l-1,1.25c-.16.2-.34.13-.31-.12l.19-1.56a.25.25,0,0,0-.06-.22l-.8-.57c-.13-.1-.06-.42.12-.56l1.1-.84a.54.54,0,0,0,.16-.25l.49-1.61C188.69,336.51,188.91,336.38,189,336.55Z" style="fill:#00DB03"></path></g></g><g id="freepik--product--inject-31"><g id="freepik--speech-bubble--inject-31"><g id="freepik--speech-bubble--inject-31"><path d="M212.37,334.58V262.93a2.26,2.26,0,0,1,1-1.77L265.63,231c.56-.33,1-.06,1,.59v71.64a2.26,2.26,0,0,1-1,1.77L213.4,335.17C212.83,335.49,212.37,335.23,212.37,334.58Z" style="fill:#fafafa"></path><path d="M266.14,231.82h0m-.44.25v71.17a1.32,1.32,0,0,1-.55.94L213.33,334.1V262.93a1.33,1.33,0,0,1,.54-.94l51.83-29.92m.38-1.2a.86.86,0,0,0-.45.14L213.4,261.16a2.26,2.26,0,0,0-1,1.77v71.65c0,.46.23.73.57.73a1,1,0,0,0,.46-.14L265.63,305a2.26,2.26,0,0,0,1-1.77V231.6c0-.46-.23-.73-.57-.73Z" style="fill:#00DB03"></path><path d="M266.64,231.41c-.08-.51-.5-.7-1-.4L213.4,261.16a2.06,2.06,0,0,0-.72.77l-5.7-3.25a2,2,0,0,1,.7-.73l52.23-30.16a2.28,2.28,0,0,1,2,0l3.66,2.05A2.22,2.22,0,0,1,266.64,231.41Z" style="fill:#00DB03"></path><g style="opacity:0.5"><path d="M266.64,231.41c-.08-.51-.5-.7-1-.4L213.4,261.16a2.06,2.06,0,0,0-.72.77l-5.7-3.25a2,2,0,0,1,.7-.73l52.23-30.16a2.28,2.28,0,0,1,2,0l3.66,2.05A2.22,2.22,0,0,1,266.64,231.41Z" style="fill:#fff"></path></g><path d="M213.4,335.17a2.42,2.42,0,0,1-2.07,0l-3.64-2.09a2.2,2.2,0,0,1-1-1.75V259.72a2.07,2.07,0,0,1,.32-1l5.7,3.25a2,2,0,0,0-.31,1v71.65C212.37,335.17,212.79,335.52,213.4,335.17Z" style="fill:#00DB03"></path></g><polygon points="217.94 264.87 260.59 240.25 260.59 271.59 217.94 296.21 217.94 264.87" style="fill:#fff"></polygon><path d="M217.94,296.69a.5.5,0,0,1-.24-.06.49.49,0,0,1-.24-.42V264.87a.47.47,0,0,1,.24-.41l42.65-24.62a.46.46,0,0,1,.48,0,.48.48,0,0,1,.24.41v31.34a.48.48,0,0,1-.24.41l-42.65,24.63A.53.53,0,0,1,217.94,296.69Zm.47-31.54v30.24l41.69-24.08V241.08Z" style="fill:#455a64"></path><path d="M247.23,263.55c0,5.68-3.46,12.28-7.72,14.74s-7.71-.15-7.71-5.83,3.45-12.28,7.71-14.74S247.23,257.87,247.23,263.55Z" style="fill:#00DB03"></path><path d="M245.86,268.67a10.79,10.79,0,0,1-1.28-2.27,12.07,12.07,0,0,1-.62-6.58,21,21,0,0,1,.5-2.16c0-.12.07-.23.1-.35l-.39-.19a2.76,2.76,0,0,1-.08.27c-.19.67-.38,1.33-.52,2a14.6,14.6,0,0,0-.32,3.76,11.22,11.22,0,0,0,1.78,5.61c.26.4.55.74.81,1.14,0,0,0,.09.08.14.11-.29.22-.58.32-.88Z" style="fill:#fff"></path><path d="M240,270.89a9,9,0,0,0-1.24-4.53,4.78,4.78,0,0,0-2.83-2.07,6.27,6.27,0,0,0-2-.17c-.14.29-.28.58-.41.87a5.29,5.29,0,0,1,4.32,1.58c1.63,1.85,2,5.45,1,9.28a18.43,18.43,0,0,1-1.07,3.08.47.47,0,0,1-.05.1,6.35,6.35,0,0,0,.7-.23c.26-.61.49-1.23.67-1.8A18.25,18.25,0,0,0,240,270.89Z" style="fill:#fff"></path><path d="M247.12,265.32a24.13,24.13,0,0,1-2.67,4.21c-1.93,2.4-4.25,4-6.28,4.23-2.78.25-4.4-2.22-4.22-6.21a22.31,22.31,0,0,1,.74-4.79,19.44,19.44,0,0,0-2.89,9.7c0,5.68,3.45,8.29,7.71,5.83C243.34,276.08,246.51,270.54,247.12,265.32Z" style="opacity:0.15"></path><path d="M220.29,315.91a1.26,1.26,0,0,1,.55,0,1.1,1.1,0,0,1,.42.24.91.91,0,0,1,.27.39,1.17,1.17,0,0,1,.11.49.43.43,0,0,1,0,.19.25.25,0,0,1-.1.12l-.88.51a.19.19,0,0,1-.15,0,.21.21,0,0,1-.12,0l-.06-.07a.36.36,0,0,0-.12-.08.44.44,0,0,0-.2,0,.65.65,0,0,0-.3.11,1.31,1.31,0,0,0-.24.17,1.34,1.34,0,0,0-.21.2,1,1,0,0,0-.15.24.71.71,0,0,0,0,.29.35.35,0,0,0,.06.23.29.29,0,0,0,.21.06,1.76,1.76,0,0,0,.4-.06l.62-.16a2.23,2.23,0,0,1,.64-.08.78.78,0,0,1,.46.17,1,1,0,0,1,.27.46,2.86,2.86,0,0,1,.09.79,3.55,3.55,0,0,1-.1.86,4.63,4.63,0,0,1-.3.81,4.41,4.41,0,0,1-.47.74,5,5,0,0,1-.61.61v.73a.46.46,0,0,1,0,.23.36.36,0,0,1-.13.16l-.87.5a.09.09,0,0,1-.13,0,.19.19,0,0,1-.05-.16v-.76a1.43,1.43,0,0,1-.58,0,1.13,1.13,0,0,1-.45-.23,1.15,1.15,0,0,1-.28-.42,1.7,1.7,0,0,1-.11-.57.41.41,0,0,1,.05-.18.27.27,0,0,1,.09-.13l.88-.5a.21.21,0,0,1,.15-.05.21.21,0,0,1,.1,0l.08.09a.58.58,0,0,0,.15.11.5.5,0,0,0,.23,0,.83.83,0,0,0,.33-.13,2.38,2.38,0,0,0,.6-.46.79.79,0,0,0,.24-.56.23.23,0,0,0-.09-.21.49.49,0,0,0-.26,0,2.53,2.53,0,0,0-.45.09l-.64.16a1,1,0,0,1-1-.18,1.84,1.84,0,0,1-.31-1.23,3.16,3.16,0,0,1,.08-.74,4,4,0,0,1,.25-.76,4.3,4.3,0,0,1,.41-.72,3.22,3.22,0,0,1,.54-.63v-.77a.44.44,0,0,1,.05-.22.31.31,0,0,1,.13-.16l.87-.51a.12.12,0,0,1,.13,0,.22.22,0,0,1,0,.17Z" style="fill:#455a64"></path><path d="M225.32,313a1.22,1.22,0,0,1,.54,0,1,1,0,0,1,.42.24,1,1,0,0,1,.28.39,1.34,1.34,0,0,1,.1.49.43.43,0,0,1,0,.19.25.25,0,0,1-.1.12l-.87.51c-.07,0-.12.05-.15,0a.21.21,0,0,1-.12-.05l-.07-.07a.28.28,0,0,0-.12-.08.43.43,0,0,0-.2,0,.65.65,0,0,0-.3.11l-.24.16a1.39,1.39,0,0,0-.21.21.89.89,0,0,0-.2.53.35.35,0,0,0,.06.23.32.32,0,0,0,.22.06,1.84,1.84,0,0,0,.4-.06l.61-.16a2.3,2.3,0,0,1,.65-.08.75.75,0,0,1,.45.17.92.92,0,0,1,.28.46,2.86,2.86,0,0,1,.09.79,3.56,3.56,0,0,1-.11.86,4,4,0,0,1-.3.81,4.41,4.41,0,0,1-.47.74,4.32,4.32,0,0,1-.6.61V321a.49.49,0,0,1-.06.23.3.3,0,0,1-.12.16l-.88.5a.09.09,0,0,1-.13,0,.23.23,0,0,1,0-.16v-.76a1.43,1.43,0,0,1-.58,0,1.09,1.09,0,0,1-.44-.23,1.06,1.06,0,0,1-.29-.42,1.7,1.7,0,0,1-.1-.57.46.46,0,0,1,0-.19.25.25,0,0,1,.1-.12l.87-.5c.07,0,.12-.06.15,0a.25.25,0,0,1,.11,0l.08.09a.4.4,0,0,0,.14.11.53.53,0,0,0,.23,0,.86.86,0,0,0,.34-.13,2.32,2.32,0,0,0,.59-.46.81.81,0,0,0,.24-.56.23.23,0,0,0-.09-.21.47.47,0,0,0-.26,0,2.45,2.45,0,0,0-.44.09l-.64.16a1,1,0,0,1-1-.18,1.83,1.83,0,0,1-.32-1.23,3.33,3.33,0,0,1,.09-.75,4.5,4.5,0,0,1,.25-.76,4.58,4.58,0,0,1,.4-.71,4.08,4.08,0,0,1,.54-.63V313a.59.59,0,0,1,0-.22.36.36,0,0,1,.13-.16l.88-.51a.1.1,0,0,1,.12,0,.22.22,0,0,1,.06.17Z" style="fill:#455a64"></path></g><path d="M260.11,281.41l-41.6,24c-.59.34-1.06,0-1.06-.79v-.21a2.49,2.49,0,0,1,1.06-2l41.6-24c.58-.34,1.05,0,1.05.79v.21A2.5,2.5,0,0,1,260.11,281.41Z" style="fill:#e0e0e0"></path><path d="M260.11,287.86l-41.6,24c-.59.34-1.06,0-1.06-.79v-.21a2.52,2.52,0,0,1,1.06-2l41.6-24c.58-.34,1.05,0,1.05.79v.21A2.5,2.5,0,0,1,260.11,287.86Z" style="fill:#e0e0e0"></path><g id="freepik--stars--inject-31"><path d="M236.62,308.93l.49,1a.12.12,0,0,0,.16.06l1.09-.42c.18-.07.25.18.12.42l-.79,1.49a.42.42,0,0,0-.06.28l.18,1.35c0,.22-.15.5-.3.48l-1-.12a.22.22,0,0,0-.19.11l-1,1.26c-.15.2-.34.13-.31-.12l.19-1.57c0-.1,0-.18-.06-.21l-.79-.58c-.13-.09-.06-.41.11-.55l1.1-.85a.46.46,0,0,0,.16-.24l.49-1.61C236.31,308.89,236.54,308.76,236.62,308.93Z" style="fill:#00DB03"></path><path d="M242.17,305.74l.5,1.05a.12.12,0,0,0,.16.06l1.09-.42c.18-.07.25.18.12.41l-.79,1.49a.46.46,0,0,0-.06.29l.18,1.35c0,.22-.15.5-.3.48l-1-.12c-.06,0-.13,0-.2.11l-1,1.26c-.15.2-.34.12-.31-.12l.19-1.57a.25.25,0,0,0-.06-.22l-.79-.57c-.13-.09-.06-.42.11-.55l1.1-.85a.49.49,0,0,0,.16-.25l.49-1.61C241.87,305.71,242.1,305.58,242.17,305.74Z" style="fill:#00DB03"></path><path d="M247.73,302.56l.5,1a.12.12,0,0,0,.16.07l1.09-.43c.18-.06.25.18.12.42l-.79,1.49a.45.45,0,0,0-.06.29l.18,1.35c0,.21-.15.49-.31.48l-1-.13a.29.29,0,0,0-.2.12l-1,1.25c-.15.2-.34.13-.31-.12l.19-1.56a.25.25,0,0,0-.06-.22l-.79-.57c-.13-.09-.06-.42.11-.56l1.1-.84a.54.54,0,0,0,.16-.25l.49-1.61C247.43,302.52,247.66,302.39,247.73,302.56Z" style="fill:#00DB03"></path><path d="M253.29,299.38l.49,1a.12.12,0,0,0,.16.06l1.1-.42c.18-.07.25.18.12.42l-.79,1.49a.51.51,0,0,0-.07.28l.19,1.35c0,.22-.15.5-.31.48l-1-.12c-.06,0-.13,0-.2.11l-1,1.26c-.15.2-.34.13-.31-.12l.19-1.57c0-.1,0-.18-.06-.21l-.8-.58c-.12-.09,0-.41.12-.55l1.1-.85a.46.46,0,0,0,.16-.24l.49-1.61C253,299.34,253.22,299.21,253.29,299.38Z" style="fill:#455a64"></path><path d="M258.85,296.19l.49,1.05a.12.12,0,0,0,.16.06l1.1-.42c.18-.07.25.18.12.41l-.79,1.5a.51.51,0,0,0-.07.28l.19,1.35c0,.22-.15.5-.31.48l-1-.12c-.06,0-.13,0-.2.11l-1,1.26c-.16.2-.34.13-.31-.12l.19-1.57a.25.25,0,0,0-.06-.22l-.8-.57c-.12-.09-.05-.42.12-.55l1.1-.85A.45.45,0,0,0,258,298l.49-1.61C258.55,296.16,258.77,296,258.85,296.19Z" style="fill:#455a64"></path></g></g></g><g id="freepik--speech-bubble--inject-31"><g id="freepik--speech-bubble--inject-31"><g id="freepik--speech-bubble--inject-31"><path d="M380.41,94.19a33.36,33.36,0,0,1-18.07,16.65L358.7,112a33.43,33.43,0,0,1-22-62.91l3.59-1.35a33.43,33.43,0,0,1,40.11,46.44Z" style="fill:#fff"></path><path d="M366,47a36.29,36.29,0,0,0-36.75,62.3l-.9,11.24a2.11,2.11,0,0,0,3.55,1.71l8.23-7.7A36.29,36.29,0,0,0,366,47Zm14.37,47.23a33.36,33.36,0,0,1-18.07,16.65L358.7,112a33.43,33.43,0,0,1-22-62.91l3.59-1.35a33.43,33.43,0,0,1,40.11,46.44Z" style="fill:#00DB03"></path><path d="M380.41,94.19a33.36,33.36,0,0,1-18.07,16.65L358.7,112a33.43,33.43,0,0,1-22-62.91l3.59-1.35a33.43,33.43,0,0,1,40.11,46.44Z" style="fill:#fff"></path></g><g id="freepik--Dog--inject-31"><path d="M344.82,80.65c0-.06-.11-.16-.19-.12a3.18,3.18,0,0,0-.73.48,4.19,4.19,0,0,0-.61.58,4.86,4.86,0,0,0-.48.64,2,2,0,0,0-.38,1c0,.12.17.37.31.23A1.68,1.68,0,0,0,343,83l.22-.33a5,5,0,0,1,.46-.64,6.8,6.8,0,0,1,.5-.57c.19-.19.39-.35.58-.54A.2.2,0,0,0,344.82,80.65Z" style="fill:#455a64"></path><path d="M341.14,86A9.89,9.89,0,0,0,337,86,13,13,0,0,0,333,87.28c-.18.1,0,.47.16.43,1.27-.19,2.5-.64,3.76-.92a14.7,14.7,0,0,1,4.24-.3C341.52,86.51,341.36,86.06,341.14,86Z" style="fill:#455a64"></path><path d="M339.59,89.37a3.84,3.84,0,0,0-1.56.72c-.46.3-.9.62-1.33,1a8.66,8.66,0,0,0-2.09,2.39c-.05.1.06.42.2.29.8-.74,1.59-1.49,2.44-2.18a15.56,15.56,0,0,1,1.26-.92l.71-.47a1.73,1.73,0,0,0,.55-.45C339.84,89.61,339.75,89.35,339.59,89.37Z" style="fill:#455a64"></path><path d="M337.82,88.91c.63-.19,1.28-.32,1.9-.56.23-.08,0-.49-.2-.48A10.9,10.9,0,0,0,335.3,89,8.53,8.53,0,0,0,332,91.38c-.09.11,0,.37.2.29,1.29-.65,2.47-1.48,3.8-2.07A15.23,15.23,0,0,1,337.82,88.91Z" style="fill:#455a64"></path><path d="M344.89,77.38a1.4,1.4,0,0,0-.36-.88,3.07,3.07,0,0,0-3.42-.83,2.94,2.94,0,0,0-1.34,1.86,1.28,1.28,0,0,0,.24,1.26,2.93,2.93,0,0,0,2,.56,3.88,3.88,0,0,0,2-.49,2.17,2.17,0,0,0,.57-.52A1.53,1.53,0,0,0,344.89,77.38Z" style="fill:#263238"></path><path d="M375.86,69a10.56,10.56,0,0,0-2.76-1.35c-1.11-.42-2.22-.82-3.35-1.2a37.8,37.8,0,0,0-7.08-1.76,9.33,9.33,0,0,0-5.66.61.64.64,0,0,1,.2.23l.23.13c1.9-.71,4.31-.32,6.21.09a50.82,50.82,0,0,1,6.87,2.07c1.8.65,4.07,1.17,5.3,2.67,1.4,1.72.81,3.75,0,5.57a40.48,40.48,0,0,0-2,5.68c-.26,1-.48,2-.65,3-.09.52-.15,1-.22,1.56,0,.27-.08.76-.32.94-.9.7-1.28-1.94-1.33-2.36a16.27,16.27,0,0,1-.05-3.12A12.56,12.56,0,0,0,370.7,76a12.33,12.33,0,0,0-3.22-4.32,25.94,25.94,0,0,0-2.41-1.88,16.35,16.35,0,0,0-2.57-1.57c-.28-.13,4.57,4.28,5.36,5.17a10.08,10.08,0,0,1,1.07,1.41,4.57,4.57,0,0,0-1.28,0,6.73,6.73,0,0,0-3.41,1.57c-.12.11-.22.22-.33.34a5.36,5.36,0,0,1,0,.7l0,.25a3.21,3.21,0,0,1,.21-.3,5.79,5.79,0,0,1,.54-.57A5.33,5.33,0,0,1,366,76a5.64,5.64,0,0,1,1.61-.53,13.22,13.22,0,0,1,1.66-.11,8.93,8.93,0,0,1,1.11,4.6c-.06,2.26-.48,4.7.27,6.92a1.71,1.71,0,0,0,3.35-.12c.27-1,.33-2,.53-3s.51-2.2.84-3.27.75-2.2,1.2-3.27a19.47,19.47,0,0,0,1.21-3.13A4.9,4.9,0,0,0,375.86,69Z" style="fill:#455a64"></path><path d="M324.68,69a10.72,10.72,0,0,1,2.76-1.35c1.11-.42,2.23-.82,3.35-1.2a38.19,38.19,0,0,1,7.08-1.76,9.36,9.36,0,0,1,5.67.61.64.64,0,0,0-.2.23l-.24.13c-1.9-.71-4.3-.32-6.2.09A50.82,50.82,0,0,0,330,67.78c-1.8.65-4.07,1.17-5.3,2.67-1.4,1.72-.81,3.75,0,5.57a41.79,41.79,0,0,1,2,5.68c.26,1,.48,2,.65,3,.09.52.15,1,.22,1.56,0,.27.08.76.32.94.9.7,1.27-1.94,1.33-2.36a18.07,18.07,0,0,0,.05-3.12,12.56,12.56,0,0,1,.53-5.71,12.36,12.36,0,0,1,3.23-4.32,25.8,25.8,0,0,1,2.4-1.88A17.32,17.32,0,0,1,338,68.23c.29-.13-4.56,4.28-5.35,5.17a10.16,10.16,0,0,0-1.08,1.41,4.64,4.64,0,0,1,1.29,0,7,7,0,0,1,1.79.53,6.89,6.89,0,0,1,1.62,1l.32.34c0,.23,0,.46-.05.7l0,.25a3.13,3.13,0,0,0-.2-.3,7.27,7.27,0,0,0-.54-.57,5.55,5.55,0,0,0-1.25-.83,5.64,5.64,0,0,0-1.61-.53,13.22,13.22,0,0,0-1.66-.11,8.93,8.93,0,0,0-1.11,4.6c.05,2.26.47,4.7-.27,6.92A1.8,1.8,0,0,1,328,88.18a1.77,1.77,0,0,1-1.44-1.41c-.28-1-.34-2-.54-3a30.14,30.14,0,0,0-.84-3.27,32,32,0,0,0-1.2-3.27,20.41,20.41,0,0,1-1.2-3.13A4.91,4.91,0,0,1,324.68,69Z" style="fill:#455a64"></path><path d="M364.7,77.45l-.08-.86c0-.17,0-.33,0-.5a15.18,15.18,0,0,0-5.06-9.32,17.44,17.44,0,0,0-4.45-2.83c-3.43-1.53-6.44-1.63-9.68,0a20.75,20.75,0,0,0-4.45,2.83,15.21,15.21,0,0,0-5.05,9.32c0,.17,0,.33-.05.5l-.08.86a14.87,14.87,0,0,0,.35,4,26.45,26.45,0,0,0,2.18,5.36,9.07,9.07,0,0,1,.89,2.77,15,15,0,0,1-.22,3.06,4.27,4.27,0,0,0,.44,2.67,7,7,0,0,0,1.77,1.83c.71.56,1.48,1.44,2.46,1.53A2.59,2.59,0,0,0,346,97.29a4.33,4.33,0,0,1,2-1.74,11.82,11.82,0,0,1,4.59,0,4.25,4.25,0,0,1,2,1.74,2.61,2.61,0,0,0,2.34,1.37c1-.09,1.74-1,2.45-1.53a6.69,6.69,0,0,0,1.77-1.83,4.34,4.34,0,0,0,.45-2.67,14.29,14.29,0,0,1-.22-3.06,8.56,8.56,0,0,1,.89-2.77,26.45,26.45,0,0,0,2.18-5.36A15.28,15.28,0,0,0,364.7,77.45Zm-1.84,5.37c-.58,1.69-1.58,3.22-2.2,4.89a7.44,7.44,0,0,0-.52,2.49c0,.94.23,1.86.29,2.79a3.33,3.33,0,0,1-.75,2.55,18.6,18.6,0,0,1-2,1.73c-.43.36-.83.72-1.43.39a3.12,3.12,0,0,1-1-1,4.41,4.41,0,0,0-1.8-1.7A9.52,9.52,0,0,0,347,95a4.49,4.49,0,0,0-1.81,1.7,3,3,0,0,1-.95,1c-.6.33-1,0-1.43-.39a17.59,17.59,0,0,1-2-1.73A3.34,3.34,0,0,1,340,93c.07-.93.3-1.85.29-2.79a7.68,7.68,0,0,0-.51-2.49c-.62-1.67-1.62-3.2-2.2-4.89a14.28,14.28,0,0,1,3.3-14.57,16.24,16.24,0,0,1,4.5-3.25l0,0A11.1,11.1,0,0,1,355,65l0,0a16.43,16.43,0,0,1,4.51,3.25,14.3,14.3,0,0,1,4,9.42A14.11,14.11,0,0,1,362.86,82.82Z" style="fill:#455a64"></path><path d="M350.6,93.15c0-.25,0-.49,0-.73a1.58,1.58,0,0,0,0-.38.81.81,0,0,0-.25-.45.26.26,0,0,0-.22-.09c-.1,0-.09.06-.15.12a.55.55,0,0,0-.19.29c0,.06,0,.13,0,.19l0,.37c0,.29,0,.57,0,.86,0,.5.05,1,.1,1.49,0,.25.36.43.58.41a.38.38,0,0,0,.39-.45C350.66,94.24,350.64,93.69,350.6,93.15Z" style="fill:#455a64"></path><path d="M355.65,80.65c0-.06.11-.16.2-.12a3.35,3.35,0,0,1,.72.48,4.84,4.84,0,0,1,.62.58,5.84,5.84,0,0,1,.47.64,1.91,1.91,0,0,1,.38,1c0,.12-.17.37-.31.23a2.35,2.35,0,0,1-.3-.45l-.22-.33a5,5,0,0,0-.46-.64,6.8,6.8,0,0,0-.5-.57c-.18-.19-.39-.35-.57-.54A.2.2,0,0,1,355.65,80.65Z" style="fill:#455a64"></path><path d="M354.87,89.12c.07.49.05,1-.33.94s-.46-.41-.68-.57a1.09,1.09,0,0,0-.73-.22.84.84,0,0,0-.79,1c.06.28.35.53.35.82s-.24.44-.45.57a9.34,9.34,0,0,1-.89.46c-.14.07-.29.15-.44.21a1.75,1.75,0,0,1-1.35,0c-.15-.06-.29-.14-.44-.21a9.34,9.34,0,0,1-.89-.46c-.21-.13-.45-.31-.45-.57s.3-.54.36-.82a.85.85,0,0,0-.8-1,1.13,1.13,0,0,0-.73.22c-.22.16-.4.53-.68.57-.66.1-.22-1.5-.15-1.77a5.22,5.22,0,0,1,.79-1.79,3.32,3.32,0,0,1,1.31-1.12,6,6,0,0,1,4.71,0,3.32,3.32,0,0,1,1.31,1.12,5.22,5.22,0,0,1,.79,1.79A7.34,7.34,0,0,1,354.87,89.12Z" style="fill:#263238"></path><path d="M359.34,86a9.84,9.84,0,0,1,4.15,0,13.11,13.11,0,0,1,3.95,1.25c.17.1,0,.47-.17.43-1.27-.19-2.5-.64-3.75-.92a14.73,14.73,0,0,0-4.24-.3C359,86.51,359.11,86.06,359.34,86Z" style="fill:#455a64"></path><path d="M360.88,89.37a3.78,3.78,0,0,1,1.56.72,16.07,16.07,0,0,1,1.33,1,8.66,8.66,0,0,1,2.09,2.39c.06.1-.06.42-.2.29-.8-.74-1.59-1.49-2.44-2.18a12.7,12.7,0,0,0-1.26-.92l-.71-.47a1.84,1.84,0,0,1-.55-.45C360.63,89.61,360.73,89.35,360.88,89.37Z" style="fill:#455a64"></path><path d="M362.66,88.91c-.64-.19-1.29-.32-1.91-.56-.22-.08,0-.49.2-.48A10.85,10.85,0,0,1,365.17,89a8.45,8.45,0,0,1,3.33,2.35c.09.11,0,.37-.19.29-1.3-.65-2.47-1.48-3.8-2.07A15.23,15.23,0,0,0,362.66,88.91Z" style="fill:#455a64"></path><path d="M355.94,78.34a2.34,2.34,0,0,0,.57.52,3.92,3.92,0,0,0,2,.49,2.9,2.9,0,0,0,2-.56,1.28,1.28,0,0,0,.25-1.26,3,3,0,0,0-1.35-1.86,3.06,3.06,0,0,0-3.41.83,1.42,1.42,0,0,0-.37.88A1.53,1.53,0,0,0,355.94,78.34Z" style="fill:#263238"></path><path d="M354.49,97.06a5.93,5.93,0,0,1-4.57,1.49,10.19,10.19,0,0,1-2.32-.36,8.64,8.64,0,0,1-2-1c-.19-.12-.25.12-.23.25.17.79,1.17,1.27,1.86,1.5a11.22,11.22,0,0,0,2.88.5c1.84.1,4-.32,5.27-1.81C355.76,97.16,354.87,96.7,354.49,97.06Z" style="fill:#455a64"></path><path d="M343.42,77a.7.7,0,1,1-.7-.7A.7.7,0,0,1,343.42,77Z" style="fill:#fff"></path><path d="M358.23,77a.7.7,0,1,1-.7-.7A.7.7,0,0,1,358.23,77Z" style="fill:#fff"></path></g></g></g></svg>
